<!--?xml version="1.0" encoding="utf-8"?-->
<!-- Generator: Adobe Illustrator 19.1.1, SVG Export Plug-In . SVG Version: 6.00 Build 0)  -->
<svg version="1.1" id="_x31_0" xmlns="http://www.w3.org/2000/svg" xmlns:xlink="http://www.w3.org/1999/xlink" x="0px" y="0px" viewBox="0 0 512 512" style="width: 512px; height: 512px; opacity: 1;" xml:space="preserve">
<style type="text/css">
	.st0{fill:#4d626f;}
</style>
<g>
	<path class="st0" d="M476.526,123.992c-18.872-4.192-49.033-8.375-77.709-2.844c-0.84,0.145-1.754,0.207-2.586,0.363l23.814-63.763
		c7.117-18.875,0.238-39.758-16.723-50.798c-16.879-10.962-38.798-8.798-53.201,5.359l-36.802,36.165
		c-4.398-0.961-9.199-1.523-14.558-1.523h-85.522c-5.359,0-10.16,0.562-14.481,1.523l-36.88-36.165
		C147.476-1.847,125.636-4.011,108.674,6.95C91.714,17.99,84.838,38.873,91.955,57.748l15.563,41.681l8.18,22.145
		c-29.411-6.289-60.724-1.894-80.225,2.418c-11.52,2.484-19.36,13.118-18.317,24.883c2.477,28.798,12,81.682,48.318,108.401
		c8,5.922,16.801,10.156,26.001,13.118c7.519,37.126,19.363,81.041,21.199,87.682c0.082,0.164,3.524,13.844,4.082,24.883
		c0,3.523,0,7.281-0.082,11.118c-0.476,25.039-0.961,56.243,13.282,77.767C148.519,499.602,187.395,512,256.037,512
		c68.564,0,107.444-12.398,126.007-40.157c14.32-21.524,13.758-52.728,13.278-77.767c0-3.837-0.078-7.594-0.078-11.118
		c0.32-5.524,1.281-11.68,2.238-16.399c0.961-4.805,1.84-8.164,1.84-8.164c1.839-6.961,13.68-50.798,21.203-88.002
		c9.199-2.962,18.001-7.196,26.078-13.118c36.239-26.719,45.763-79.603,48.24-108.401
		C495.886,137.11,488.046,126.476,476.526,123.992z M376.524,39.193c1.203-1.206,2.898-1.64,4.5-1.336
		c0.211,0.043,0.406,0.114,0.61,0.18c0.414,0.133,0.828,0.27,1.207,0.516c1.922,1.359,2.801,3.758,1.922,6l-10.856,29l-5.281,13.895
		c-7.817-9-14.676-14.985-19.383-18.817c-0.481-0.398-1.039-0.718-1.52-1.203L376.524,39.193z M194.438,195.595
		c6,0,11.84,1.836,16.722,5.117c10.958,7.126,17.758,21.204,17.758,36.642c0,12.078-3.922,23.126-10.883,30.719
		c-6.238,7.203-14.641,11.126-23.598,11.126c-19.36,0-34.56-18.321-34.56-41.845C159.878,213.994,175.078,195.595,194.438,195.595z
		 M127.238,44.553c-0.801-2.242,0-4.641,2-6c0.277-0.196,0.594-0.305,0.902-0.426c0.266-0.106,0.535-0.187,0.828-0.246
		c0.328-0.062,0.652-0.133,0.988-0.133c1.282,0,2.563,0.484,3.52,1.445l28.634,28.071l0.168,0.168
		c-0.481,0.481-0.962,0.801-1.52,1.199c-4.481,3.586-10.742,9.223-17.926,17.227c-0.515,0.554-1.019,1.019-1.538,1.582
		L127.238,44.553z M380.684,276.636c-6,27.203-13.762,57.118-17.844,72.079c-0.156,0.719-4.558,17.766-5.278,32.806l-0.082,0.961
		c0,3.836,0.082,8,0.16,12.157c0.32,19.922,0.801,44.563-6.958,56.243c-10.402,15.516-42.242,23.438-94.646,23.438
		c-52.478,0-84.322-7.922-94.721-23.438c-7.758-11.68-7.281-36.321-6.961-56.243c0.082-4.157,0.164-8.321,0.164-12.157l-0.082-0.961
		c-0.722-15.039-5.121-32.086-5.359-33.04c-1.683-6.164-4-14.961-6.558-25.047c1.73,0.656,3.606,1.035,5.406,1.566
		c0.882,0.258,1.754,0.535,2.656,0.766c2.234,0.57,4.489,1.074,6.801,1.465c0.23,0.039,0.469,0.058,0.699,0.098
		c5.086,0.817,10.325,1.215,15.688,1.242c0.16,0,0.313,0.019,0.473,0.019c0.074,0,0.152-0.011,0.23-0.011
		c5.859-0.008,11.797-0.297,17.805-1.145c59.282-8.321,80.482-62.079,80.482-129.276c0-26.606-4.035-49.22-10.965-67.822
		c-0.066-0.188-0.118-0.391-0.188-0.578c-1.5-3.969-3.187-7.661-4.945-11.25c-0.438-0.89-0.809-1.859-1.262-2.734
		c-1.531-2.938-3.23-5.602-4.934-8.266c-0.84-1.328-1.602-2.75-2.488-4.016c-1.371-1.942-2.879-3.629-4.336-5.41
		c-1.414-1.73-2.754-3.558-4.262-5.156c-0.258-0.27-0.547-0.481-0.813-0.746c-2.61-2.695-5.305-5.27-8.195-7.547h68.388
		c1.168,0,2.25,0.063,3.281,0.161c0.13,0.011,0.262,0.023,0.391,0.035c1.019,0.109,1.984,0.258,2.886,0.445
		c6.242,1.282,10.321,4.641,16.481,9.68c0.16,0.156,0.321,0.242,0.481,0.398c1.199,0.961,2.402,1.922,3.602,2.883
		c1.519,1.195,3.758,3.117,6.32,5.602c6.399,6.156,15.52,16.321,25.2,31.914c0.481,0.641,0.879,1.36,1.282,2.086
		c2.797,4.554,5.598,9.516,8.398,14.954c0,0,0,0.086,0,0.164c14.801,28.962,22.238,53.758,22.001,73.759
		C388.922,236.393,385.321,255.752,380.684,276.636z" style="fill: rgb(75, 75, 75);"></path>
	<path class="st0" d="M194.438,263.198c4.402,0,8.48-2.086,11.598-5.602c4.242-4.718,6.883-11.922,6.883-20.242
		c0-10.398-4.242-19.196-10.481-23.282c-2.481-1.594-5.199-2.477-8-2.477c-10.403,0-18.559,11.359-18.559,25.758
		C175.879,251.838,184.035,263.198,194.438,263.198z M190.438,224.79c2.238,0,4.001,2.165,4.001,4.883
		c0,2.805-1.762,4.961-4.001,4.961c-2.32,0-4.082-2.156-4.082-4.961C186.356,226.955,188.118,224.79,190.438,224.79z" style="fill: rgb(75, 75, 75);"></path>
	<path class="st0" d="M317.64,263.432c10.321,0,18.481-11.359,18.481-25.836c0-14.399-8.16-25.758-18.481-25.758
		c-2.879,0-5.598,0.874-7.918,2.398c-6.324,4.078-10.558,12.875-10.558,23.36c0,8.242,2.637,15.516,6.875,20.242
		C309.159,261.354,313.159,263.432,317.64,263.432z M313.562,225.033c2.238,0,4,2.164,4,4.883c0,2.797-1.762,4.961-4,4.961
		c-2.242,0-4-2.164-4-4.961C309.562,227.197,311.319,225.033,313.562,225.033z" style="fill: rgb(75, 75, 75);"></path>
	<path class="st0" d="M193.778,408.482c-3.359,3.554-3.262,9.125,0.29,12.485c3.554,3.359,17.375,16.61,20.93,20.062
		c1.727,1.539,3.934,2.398,6.141,2.398c2.211,0,4.61-0.961,6.336-2.687c8.837-9.313,8.547-24.094-0.766-32.93
		C217.395,398.881,202.614,399.178,193.778,408.482z" style="fill: rgb(75, 75, 75);"></path>
	<path class="st0" d="M285.291,407.81c-9.312,8.836-9.602,23.618-0.77,32.93c1.731,1.726,4.032,2.687,6.337,2.687
		c2.21,0,4.418-0.859,6.144-2.398c3.551-3.453,17.376-16.703,20.93-20.062c3.551-3.36,3.645-8.93,0.286-12.485
		C309.386,399.178,294.6,398.881,285.291,407.81z" style="fill: rgb(75, 75, 75);"></path>
	<path class="st0" d="M336.839,359.918c-25.598-10.805-52.802-16.321-80.802-16.321c-28.078,0-55.278,5.516-80.877,16.321
		c-3.445,1.516-5.125,5.516-3.602,8.962c1.438,3.515,5.52,5.117,8.962,3.679c23.918-10.164,49.278-15.203,75.517-15.203
		c26.165,0,51.525,5.039,75.443,15.203c0.883,0.321,1.84,0.555,2.722,0.555c2.637,0,5.2-1.594,6.321-4.234
		C341.961,365.434,340.281,361.434,336.839,359.918z" style="fill: rgb(75, 75, 75);"></path>
</g>
</svg>
