<?xml version="1.0" standalone="no"?>
<!DOCTYPE svg PUBLIC "-//W3C//DTD SVG 20010904//EN"
 "http://www.w3.org/TR/2001/REC-SVG-20010904/DTD/svg10.dtd">
<svg version="1.0" xmlns="http://www.w3.org/2000/svg"
 viewBox="0 0 2600.000000 2600.000000"
 preserveAspectRatio="xMidYMid meet">
<metadata>
Created by potrace 1.13, written by Peter Selinger 2001-2015
</metadata>
<g transform="translate(0.000000,2600.000000) scale(0.100000,-0.100000)"
fill="#000000" stroke="none">
<path d="M3785 21799 c-99 -13 -251 -68 -348 -125 -54 -32 -115 -82 -177 -144
-108 -107 -163 -199 -218 -365 -56 -169 -63 -241 -66 -728 -2 -243 -8 -496
-15 -562 -32 -353 -64 -635 -86 -760 -54 -303 -97 -585 -105 -695 -45 -562
-29 -1315 41 -1870 86 -690 262 -1313 523 -1855 277 -573 671 -1061 1181
-1460 110 -86 362 -254 494 -330 131 -74 383 -195 521 -250 69 -27 129 -52
133 -56 5 -3 -14 -76 -42 -160 -371 -1144 -512 -2312 -405 -3354 147 -1436
724 -2672 1704 -3655 394 -396 806 -715 1300 -1010 1155 -690 2566 -1102 4230
-1234 655 -53 1507 -53 2180 -1 1944 152 3589 707 4825 1631 425 317 832 709
1151 1109 560 700 953 1536 1148 2440 109 506 151 954 143 1525 -6 360 -12
468 -47 777 -65 581 -211 1240 -404 1823 l-35 105 27 12 c15 7 93 39 174 73
511 213 966 519 1350 907 212 214 346 376 497 601 463 689 757 1617 846 2677
38 450 47 1116 19 1440 -15 180 -79 615 -124 845 -11 58 -20 124 -20 148 0 23
-9 116 -20 205 -44 363 -53 512 -56 957 -3 477 -8 534 -65 704 -16 49 -51 130
-77 180 -121 236 -398 421 -677 455 -145 17 -392 -15 -580 -76 -27 -8 -203
-81 -390 -160 -835 -355 -1101 -453 -1440 -528 -209 -47 -368 -66 -590 -72
-237 -6 -402 5 -660 44 -138 21 -218 27 -425 30 -345 7 -548 -16 -876 -97
-703 -174 -1337 -536 -1902 -1085 -185 -179 -444 -474 -522 -594 l-15 -23
-105 42 c-551 221 -1101 356 -1700 417 -247 25 -834 25 -1075 0 -594 -63
-1113 -187 -1649 -397 -87 -34 -159 -60 -160 -58 -1 2 -28 39 -61 82 -104 142
-288 347 -471 526 -356 348 -689 587 -1109 795 -705 349 -1378 464 -2101 361
-516 -74 -887 -60 -1336 50 -297 73 -566 173 -1306 488 -224 95 -450 185 -502
199 -183 51 -393 73 -525 56z m930 -1439 c377 -157 589 -238 792 -304 725
-232 1341 -280 2123 -166 752 111 1566 -192 2234 -831 103 -98 249 -260 360
-398 148 -186 292 -476 473 -951 84 -221 109 -266 197 -347 77 -72 142 -108
242 -133 198 -51 388 2 535 149 86 86 131 167 154 279 29 136 18 214 -65 431
-27 74 -49 136 -47 138 10 9 289 110 412 148 356 110 716 178 1100 206 197 14
627 6 815 -15 423 -49 852 -153 1225 -297 58 -22 105 -44 105 -47 0 -4 -20
-60 -45 -125 -79 -209 -94 -299 -71 -422 40 -204 181 -367 378 -437 85 -30
256 -32 338 -4 204 70 307 179 395 421 106 292 226 565 327 749 82 149 106
184 235 338 584 703 1325 1117 2087 1168 148 10 297 1 506 -29 286 -41 353
-46 675 -46 343 0 470 11 745 61 461 84 884 228 1700 579 162 70 302 129 311
132 14 4 16 -29 22 -309 7 -314 21 -533 56 -858 11 -96 22 -214 25 -261 3 -48
15 -130 26 -184 39 -192 102 -582 112 -700 16 -193 21 -709 8 -979 -48 -1091
-264 -1869 -697 -2522 -422 -636 -1030 -1039 -1913 -1269 -220 -57 -282 -87
-375 -179 -115 -115 -165 -235 -166 -396 0 -146 45 -265 142 -374 45 -50 57
-74 114 -233 157 -439 292 -960 369 -1418 64 -383 86 -633 93 -1035 7 -412
-11 -686 -68 -1030 -145 -885 -501 -1668 -1062 -2340 -97 -116 -389 -412 -517
-524 -600 -526 -1311 -924 -2180 -1218 -996 -337 -2108 -501 -3400 -501 -674
0 -1179 34 -1770 119 -1361 196 -2540 643 -3440 1303 -520 381 -968 863 -1296
1391 -91 147 -260 476 -329 640 -385 918 -488 1957 -309 3120 65 422 198 958
343 1380 87 255 105 295 161 357 199 224 179 562 -45 772 -78 73 -173 120
-305 151 -471 112 -904 300 -1255 545 -674 472 -1129 1271 -1315 2311 -100
562 -135 1363 -85 1934 13 147 90 637 115 731 5 19 14 96 19 170 6 73 17 193
25 264 32 268 47 510 53 826 l6 326 136 -59 c75 -33 285 -122 466 -198z"/>
<path d="M21785 19369 c-88 -12 -134 -28 -475 -174 -518 -221 -681 -277 -949
-329 -199 -39 -338 -48 -756 -50 -407 -3 -491 -9 -743 -57 -420 -79 -796 -238
-1096 -462 -106 -80 -291 -260 -375 -367 -94 -118 -221 -312 -221 -337 0 -5
73 -70 163 -145 992 -827 1898 -2091 2566 -3578 45 -102 86 -188 89 -192 14
-14 267 94 404 172 464 265 844 582 1143 955 81 100 233 331 305 462 77 142
176 372 228 533 119 367 169 685 179 1133 7 314 -2 436 -57 787 -69 436 -108
909 -96 1176 12 260 -29 394 -137 451 -40 20 -113 30 -172 22z"/>
<path d="M5134 19351 c-51 -23 -96 -78 -119 -144 -16 -45 -19 -104 -26 -412
-5 -239 -14 -427 -27 -560 -12 -110 -23 -222 -26 -250 -2 -27 -21 -144 -40
-260 -148 -860 -30 -1738 323 -2410 319 -608 840 -1119 1521 -1491 98 -54 348
-161 355 -152 1 2 44 95 95 208 418 924 937 1783 1502 2481 363 451 816 904
1197 1200 l33 26 -28 49 c-320 554 -824 920 -1499 1085 -314 77 -456 91 -925
95 -751 5 -926 45 -1755 404 -143 62 -291 121 -329 131 -91 25 -198 24 -252 0z"/>
<path d="M10199 14050 c-341 -43 -645 -271 -774 -580 -109 -260 -108 -512 2
-775 130 -311 458 -546 798 -573 510 -40 944 289 1046 793 16 82 14 275 -5
360 -85 394 -387 692 -773 764 -79 15 -221 21 -294 11z"/>
<path d="M16685 14054 c-265 -37 -446 -124 -611 -295 -363 -376 -366 -964 -6
-1340 145 -153 329 -252 533 -289 86 -16 271 -14 354 4 403 85 700 390 770
792 50 290 -39 594 -239 811 -133 144 -294 241 -478 288 -93 23 -258 38 -323
29z"/>
<path d="M13235 12384 c-899 -58 -1691 -306 -2335 -730 -687 -453 -1120 -1084
-1215 -1770 -20 -138 -22 -386 -5 -519 84 -675 486 -1290 1145 -1752 527 -370
1209 -627 1940 -732 430 -62 976 -70 1400 -21 767 90 1465 334 2035 713 349
232 683 568 881 887 65 105 168 316 209 430 232 639 141 1340 -248 1925 -572
859 -1667 1424 -3012 1555 -115 11 -681 21 -795 14z m795 -1148 c487 -61 880
-175 1251 -362 259 -131 471 -285 647 -469 491 -514 480 -1114 -29 -1625 -433
-435 -1117 -720 -1934 -805 -181 -19 -614 -22 -795 -6 -848 78 -1567 377
-2005 832 -118 123 -182 210 -249 339 -226 434 -133 890 264 1291 145 147 298
263 495 376 396 229 925 386 1470 438 194 18 706 13 885 -9z"/>
<path d="M12175 10594 c-252 -54 -468 -233 -572 -474 -74 -174 -83 -382 -24
-560 46 -135 99 -220 205 -325 78 -78 106 -98 197 -143 194 -97 385 -116 582
-58 288 85 482 287 564 587 24 88 24 289 -1 379 -56 205 -180 376 -354 488
-165 107 -398 148 -597 106z"/>
<path d="M14591 10600 c-353 -74 -611 -355 -650 -707 -40 -370 184 -724 535
-845 492 -169 1005 157 1063 676 43 382 -193 735 -575 856 -78 25 -294 36
-373 20z"/>
</g>
</svg>
