<svg id="pig" enable-background="new 0 0 300 300" height="512" viewBox="0 0 300 300" width="512" xmlns="http://www.w3.org/2000/svg"><path d="m226.562 76.889h-19.512c-12.427-7.566-27.418-12-43.55-12-16.28 0-31.387 4.528-43.88 12.221-.355-.104-.708-.221-1.097-.221h-15.961c-24.262 0-44 19.738-44 44 0 2.209 1.789 4 4 4h20c1.396 0 2.788-.09 4.171-.22-.495 3.163-.839 6.367-.839 9.65 0 .158.004.314.012.471-5.359 9.441-8.074 19.453-8.074 29.777 0 7.941 1.675 15.552 4.627 22.681-2.838.471-6.609.877-10.232.717 1.637-2.994 2.121-5.705 2.254-7.309.645-7.904-3.902-15.418-9.934-16.412-1.875-.311-8.238-.529-10.789 9.697-1.781 7.119-.695 12.723 3.227 16.658.137.141.281.277.426.412-5.684 2.654-13.84 4.1-23.973 4.1-2.211 0-4 1.791-4 4s1.789 4 4 4c16.578 0 26.48-3.568 32.391-7.953 7.798 1.823 16.795.285 20.326-.462 13.758 23.847 43.208 40.415 77.345 40.415 47.238 0 85.668-31.646 85.668-70.545 0-10.322-2.715-20.332-8.07-29.771.008-.158.012-.316.012-.477 0-3.384-.364-6.685-.889-9.94 2.099.303 4.213.51 6.342.51h20c2.211 0 4-1.791 4-4-.001-24.261-19.739-43.999-44.001-43.999zm-162.472 109.168c-.539-.32-1.023-.686-1.438-1.102-.676-.676-2.723-2.73-1.137-9.072.68-2.713 1.562-3.648 1.727-3.746.871.078 3.492 2.941 3.289 7.48-.109 2.395-.941 4.549-2.441 6.44zm23.75-69.551c-1.727.254-3.504.383-5.277.383h-15.778c1.996-17.975 17.277-32 35.777-32h6.528c-9.749 8.59-16.908 19.478-20.522 31.654-.244-.01-.477-.075-.728-.037zm153.328 48.06c0 34.488-34.84 62.545-77.668 62.545s-77.668-28.057-77.668-62.545c0-9.264 2.551-18.275 7.582-26.779.383-.646.574-1.385.559-2.135-.008-.287-.027-.57-.051-.854l-.027-.48c0-33.873 31.227-61.43 69.605-61.43 38.383 0 69.609 27.557 69.609 61.43l-.027.461c-.023.289-.047.58-.055.873-.016.75.176 1.488.559 2.135 5.031 8.504 7.582 17.516 7.582 26.779zm5.394-47.677c-2.785 0-5.559-.318-8.242-.945-.02-.005-.039.002-.059-.002-3.672-11.934-10.761-22.604-20.35-31.053h8.651c18.5 0 33.781 14.025 35.777 32z"/><path d="m165.793 148.455c-23.008 0-41.027 12.389-41.027 28.205 0 15.814 18.02 28.203 41.027 28.203s41.031-12.389 41.031-28.203c0-15.816-18.023-28.205-41.031-28.205zm0 48.408c-17.902 0-33.027-9.252-33.027-20.203 0-10.953 15.125-20.205 33.027-20.205 17.906 0 33.031 9.252 33.031 20.205 0 10.951-15.125 20.203-33.031 20.203z"/><circle cx="205.848" cy="131.294" r="6.009"/><circle cx="121.155" cy="131.294" r="6.009"/><circle cx="180.562" cy="174.889" r="6"/><circle cx="152.562" cy="174.889" r="6"/></svg>